<svg id="图层_1" data-name="图层 1" xmlns="http://www.w3.org/2000/svg" xmlns:xlink="http://www.w3.org/1999/xlink" viewBox="0 0 498.04 133.77"><defs><style>.cls-1{fill:#898989;}.cls-2{fill:#4aba58;}.cls-3{fill:url(#未命名的渐变_9);}</style><linearGradient id="未命名的渐变_9" x1="9.49" y1="66.65" x2="88.35" y2="66.65" gradientUnits="userSpaceOnUse"><stop offset="0" stop-color="#006934" stop-opacity="0"/><stop offset="1" stop-color="#006934"/></linearGradient></defs><title>蜻蜓 开源</title><path class="cls-1" d="M186.3,41.48a21.29,21.29,0,0,1,10.06,2.29,21.8,21.8,0,0,1,7.24,6.06A27.85,27.85,0,0,1,208,58.37a33.64,33.64,0,0,1,1.6,9.8A32.62,32.62,0,0,1,208.3,78,26,26,0,0,1,204,86.51a21.61,21.61,0,0,1-7.32,6.06,22.28,22.28,0,0,1-10.37,2.29h-20V41.48Zm-1.14,46a15,15,0,0,0,9.38-3,17.47,17.47,0,0,0,5.41-7.17,22.77,22.77,0,0,0,1.64-9.26,24.29,24.29,0,0,0-2-9.26,18.28,18.28,0,0,0-5.41-7.09,13.35,13.35,0,0,0-8.58-2.82H174.33V87.46Z"/><path class="cls-1" d="M238.3,65.65a10.52,10.52,0,0,0-2.55-1.94,7.59,7.59,0,0,0-8.54,1.68A8.66,8.66,0,0,0,225,71.67V94.85h-7.62V56.73h7.55v4.12A10.17,10.17,0,0,1,229,57.53a13.85,13.85,0,0,1,5.91-1.26,14.74,14.74,0,0,1,5,.8,11.54,11.54,0,0,1,4.19,2.78Z"/><path class="cls-1" d="M270.17,94.85V91.42a12.1,12.1,0,0,1-4.35,3,16.66,16.66,0,0,1-5.87.88,18.72,18.72,0,0,1-6-.84,10.41,10.41,0,0,1-4.19-2.67,9.14,9.14,0,0,1-2.17-3.55,13.78,13.78,0,0,1-.72-4.54,10.49,10.49,0,0,1,3.28-7.93q3.28-3.13,9.76-3.13H270V70q0-3.66-1.94-5.41t-6.44-1.75a12.6,12.6,0,0,0-5,.8,8.51,8.51,0,0,0-3.35,2.86l-5-4.65a14.43,14.43,0,0,1,5.83-4.35,22.76,22.76,0,0,1,7.82-1.14q15.71,0,15.71,13V94.85ZM270,78.08h-9a8,8,0,0,0-5.11,1.41,4.84,4.84,0,0,0-1.75,4,5,5,0,0,0,1.72,4.08q1.72,1.41,5.3,1.41a18.13,18.13,0,0,0,3.93-.38,6.63,6.63,0,0,0,3.24-1.91Q270,85.1,270,81.13Z"/><path class="cls-1" d="M302,56.2A16.38,16.38,0,0,1,308,57.26a16.84,16.84,0,0,1,5,3V56.73h6.94V91.88a17.1,17.1,0,0,1-1.41,6.9,17.53,17.53,0,0,1-3.89,5.64,18.72,18.72,0,0,1-5.83,3.81,18.81,18.81,0,0,1-14.11.08,18,18,0,0,1-5.79-3.77l5-4.88a11.1,11.1,0,0,0,3.55,2.14,11.9,11.9,0,0,0,4.23.76,11.7,11.7,0,0,0,4.38-.84A11.08,11.08,0,0,0,312,96a9.63,9.63,0,0,0,.92-4.16V90.36A15.95,15.95,0,0,1,302,94.47a15.75,15.75,0,0,1-5.49-1,16.08,16.08,0,0,1-4.65-2.63,15.42,15.42,0,0,1-3.47-4,18.39,18.39,0,0,1-2.1-5,22.92,22.92,0,0,1-.61-3.77,37.66,37.66,0,0,1-.11-3.77,29.48,29.48,0,0,1,.27-3.47,27.77,27.77,0,0,1,.53-2.86,15.44,15.44,0,0,1,2.17-4.69,16,16,0,0,1,3.55-3.74,17.3,17.3,0,0,1,4.57-2.48A15.48,15.48,0,0,1,302,56.2Zm1.53,31.41a7.88,7.88,0,0,0,5.8-2.36,11.56,11.56,0,0,0,3.13-5.79,13.77,13.77,0,0,0,.31-2.25q.08-1.26,0-2.44t-.15-2.25a8.49,8.49,0,0,0-.34-1.75,10.47,10.47,0,0,0-3-5.49,8.06,8.06,0,0,0-5.72-2.14,7.82,7.82,0,0,0-5.6,2.14,10.59,10.59,0,0,0-3,5.49,21.71,21.71,0,0,0-.53,5.15,18.94,18.94,0,0,0,.38,3.55,12.32,12.32,0,0,0,3.09,5.83A7.57,7.57,0,0,0,303.57,87.61Z"/><path class="cls-1" d="M343.37,56.2a15.68,15.68,0,0,1,9.76,2.9,17.79,17.79,0,0,1,5.68,7.24,21.79,21.79,0,0,1,1.72,9.38,24.58,24.58,0,0,1-2.1,9.38,18.4,18.4,0,0,1-5.76,7.24,14.92,14.92,0,0,1-9.3,2.9,15.46,15.46,0,0,1-9.57-2.9A17.94,17.94,0,0,1,328,85.09a24,24,0,0,1,0-18.76,18.07,18.07,0,0,1,5.72-7.24A15.42,15.42,0,0,1,343.37,56.2Zm0,31.95a8.21,8.21,0,0,0,5.49-1.87,12,12,0,0,0,3.35-4.61,16,16,0,0,0,1.18-6,15.51,15.51,0,0,0-1.07-6A11.49,11.49,0,0,0,349,65a8.48,8.48,0,0,0-5.6-1.87A8.07,8.07,0,0,0,337.91,65a11.47,11.47,0,0,0-3.24,4.61,16,16,0,0,0-1,6,17,17,0,0,0,1.11,6A11.45,11.45,0,0,0,338,86.28,8,8,0,0,0,343.37,88.15Z"/><path class="cls-1" d="M391.4,94.85V71.6q0-4.42-2.21-6.44a7.73,7.73,0,0,0-5.41-2,8.25,8.25,0,0,0-5.6,2q-2.33,2-2.33,6.44V94.85h-7.62V56.73h7.48v3.89a12.41,12.41,0,0,1,4.61-3.28,14.56,14.56,0,0,1,5.53-1.07,14.23,14.23,0,0,1,5.83,1.11,11.69,11.69,0,0,1,4.15,3.05A12.5,12.5,0,0,1,398.3,65a18.58,18.58,0,0,1,.8,5.49v24.4Z"/><path class="cls-1" d="M420.07,63.59V94.85h-7.55V63.59h-5.64V57.72h5.64V52a11.9,11.9,0,0,1,.65-3.93,10.46,10.46,0,0,1,1.91-3.36,9,9,0,0,1,3.2-2.36,11.16,11.16,0,0,1,4.61-.88h5.64V48h-4.35q-4.12,0-4.12,4.35v5.34h8.46v5.87Z"/><path class="cls-1" d="M445.54,94.85a11.88,11.88,0,0,1-4.65-.84,8.69,8.69,0,0,1-3.24-2.29,9.41,9.41,0,0,1-1.87-3.35,12.86,12.86,0,0,1-.61-4V41.56h7.7V84a5.27,5.27,0,0,0,.88,3.32,3.84,3.84,0,0,0,3.16,1.11h5v6.48Z"/><path class="cls-1" d="M473.36,102.48a21.25,21.25,0,0,1-1.64,3.32,8.15,8.15,0,0,1-2.13,2.33,9,9,0,0,1-2.9,1.37,14.74,14.74,0,0,1-3.93.46h-3.13V103h2a5.74,5.74,0,0,0,3.55-.88A7.16,7.16,0,0,0,467.11,99L469.25,93,455.9,56.73H464l9.07,26.84L482,56.73h8.23Z"/><g id="_编组_" data-name="&lt;编组&gt;"><g id="_编组_2" data-name="&lt;编组&gt;"><polygon id="_路径_" data-name="&lt;路径&gt;" class="cls-2" points="90.19 13.06 72.24 2.69 54.28 13.06 72.24 23.42 90.19 13.06"/><polygon id="_路径_2" data-name="&lt;路径&gt;" class="cls-2" points="62.45 80.72 65.01 128.02 72.24 132.19 79.46 128.02 82.02 80.72 72.24 75.06 62.45 80.72"/><path id="_路径_3" data-name="&lt;路径&gt;" class="cls-2" d="M103.63,41.62,135,23.52l-13.14-7.59a10,10,0,0,0-5-1.39,9.44,9.44,0,0,0-4.82,1.3L85.51,31.16Z"/><path id="_路径_4" data-name="&lt;路径&gt;" class="cls-2" d="M103.6,57,135,75.07l-13.14,7.59a10,10,0,0,1-5,1.39,9.44,9.44,0,0,1-4.82-1.3L85.47,67.42Z"/><path id="_路径_5" data-name="&lt;路径&gt;" class="cls-2" d="M54.12,49.28,9.49,75l13.14,7.59a10,10,0,0,0,5,1.39,9.44,9.44,0,0,0,4.82-1.3l39.8-23Z"/><path id="_路径_6" data-name="&lt;路径&gt;" class="cls-2" d="M72.24,59.74,9.49,23.52l13.14-7.59a10,10,0,0,1,5-1.39,9.44,9.44,0,0,1,4.82,1.3L90.36,49.28Z"/><path id="_路径_7" data-name="&lt;路径&gt;" class="cls-3" d="M54.12,49.28,9.49,75l13.14,7.59a10,10,0,0,0,5,1.39,9.44,9.44,0,0,0,4.82-1.3L61.25,66.08a7.23,7.23,0,0,0,.29-12.52C57.45,51.26,54.12,49.28,54.12,49.28Z"/></g></g></svg>