<svg xmlns="http://www.w3.org/2000/svg" viewBox="0 0 887.74 280.26"><defs><style>.cls-1{fill:#ee4d2d;}</style></defs><title>Asset 1</title><g id="Layer_2" data-name="Layer 2"><g id="Layer_1-2" data-name="Layer 1"><path class="cls-1" d="M205.67,266c12.11-.33,21.91-10.11,23-22.24l.08-1.46,8.57-172.8h0a2.17,2.17,0,0,0,0-.26,5.08,5.08,0,0,0-5.09-5.08H177.12C175.76,28.48,150.1,0,118.63,0S61.5,28.48,60.15,64.19H5a5.09,5.09,0,0,0-5,5.08c0,.14,0,.27,0,.4H0L7.84,241.79,8,244c1.2,12,10,21.62,21.85,22.07h0l175,0Zm-87-250.51c22.93,0,41.61,21.61,42.49,48.66h-85C77,37.14,95.71,15.53,118.63,15.53Zm43.71,183.61c-1.57,12.85-9.42,23.15-21.57,28.31a54.29,54.29,0,0,1-23,3.92,74.58,74.58,0,0,1-31.35-8.06,77.52,77.52,0,0,1-12.58-8.59c-.89-.73-1.34-1.4-.49-2.6.91-1.36,4.51-6.56,5.08-7.42.76-1.17,2-1.23,3.17-.33l1.57,1.21c9.31,7.25,21.33,12.69,34.68,13.2,16.84-.23,29-7.73,31.23-19.34,2.41-12.8-7.81-23.77-27.47-29.9-6.25-1.94-22-8.19-24.87-9.88q-20.55-12-19.18-31.35C79,110.45,95.62,97.07,116.78,97a71.76,71.76,0,0,1,27.85,5.7,73.25,73.25,0,0,1,10.89,5.9,2.14,2.14,0,0,1,.76,3.12c-.84,1.38-3.32,5.25-4.33,6.87-.73,1.1-1.63,1.23-2.92.42a58.65,58.65,0,0,0-32-9.87c-14.46.29-25.36,8.82-26.07,20.52-.19,10.56,7.89,18.23,25,24.08C151.46,165,164.88,178.31,162.34,199.14Z"/><path class="cls-1" d="M331.8,151.38c-17.33-5.56-25.31-12.88-25.31-22.94.5-11.18,10.94-19.61,25.15-20.13a57.18,57.18,0,0,1,31.8,9.51c2.56,1.55,3.81,1,5.3-1,.16-.26.71-1,2.53-3.64h0c1.72-2.47,2.39-3.43,2.57-3.73,1.24-2.33,1.24-3.58-1.32-5.39A78.24,78.24,0,0,0,360.74,98,76.15,76.15,0,0,0,331,92.43c-22.81.49-40.66,15.28-41.84,34.76-.75,14.08,6.44,25.39,21.35,33.71,4.24,2.23,19.44,7.92,26.39,9.95,19.88,5.8,30.05,16.36,28,28.67-1.91,11.2-13.76,18.74-30.57,19.26-12.28-.25-24.6-4.75-35.27-12.73l-.83-.62-.83-.61c-2.34-1.61-4-1.61-5.65.81-.06.1-1.35,2.06-2.64,4-1.51,2.27-2.16,3.26-2.51,3.81-1.38,2-1.14,3.14.87,4.83h0a83.24,83.24,0,0,0,13.57,8.9,79.33,79.33,0,0,0,33.44,8,58.26,58.26,0,0,0,24.57-4.63c13.07-5.81,21.42-17.14,22.88-31.1C384.31,176.77,369.48,162.66,331.8,151.38Z"/><path class="cls-1" d="M437.5,145.73A42.27,42.27,0,0,0,412.35,154V95.54c0-2.28-.9-3.16-3.17-3.16H398.59c-2.52,0-3.17.83-3.17,3.16V231.46c0,2.24.65,3.17,3.17,3.17h10.59c2.3,0,3.17-1,3.17-3.17V187.07c0-15.16,11.33-24.71,25.15-24.71s25.15,9.55,25.15,24.81v44.29c0,2.57.63,3.17,3.17,3.17h10.56c2.52,0,3.18-.6,3.18-3.17V187C479.47,164.29,460.49,145.73,437.5,145.73Z"/><path class="cls-1" d="M538.52,145.83c-25.13,0-45.51,20-45.51,44.59S513.39,235,538.52,235s45.5-20,45.5-44.6S563.64,145.83,538.52,145.83Zm0,72.79c-15.92,0-28.82-12.63-28.82-28.22s12.9-28.22,28.82-28.22,28.81,12.64,28.81,28.22S554.42,218.62,538.51,218.62Z"/><path class="cls-1" d="M882.54,196.42h.23a5.3,5.3,0,0,0,5-5.36c0-.14,0-.26,0-.38s0-.13,0-.32c0-24.63-19.31-44.6-43.15-44.6s-43.14,20-43.14,44.6a45.42,45.42,0,0,0,.33,5.48l.07.58h0A43.4,43.4,0,0,0,812.79,220s0,0,0,0a45.89,45.89,0,0,0,25.58,14.12l.77.14v0l1.17.18c13.67,1.65,25.18-.57,34.51-5.27a42.42,42.42,0,0,0,6.5-4c.64-.48,1.19-.93,1.64-1.33.28-.24.47-.42.57-.52,2.41-2.49,2.52-3.56,1.08-5.81-3.34-5.32-5.21-7.92-5.21-7.92-1.31-1.63-2.49-2-4.16-.53-.29.26-.56.43-.7.58-10,8.85-23,10.59-34.42,8.21a38.05,38.05,0,0,1-6.55-2.39,27.6,27.6,0,0,1-15-19.06h63.95Zm-62.91-16.35c3.31-10.79,13.31-18,25-18a27.64,27.64,0,0,1,25.42,18Z"/><path class="cls-1" d="M642.73,145.6a44.57,44.57,0,0,0-28.29,10.06v-6.9c0-2.4-.66-3.16-3.18-3.16H601.19c-2.51,0-3.17.7-3.17,3.16V277.09c0,2.33.66,3.17,3.17,3.17h10.07c2.52,0,3.18-.82,3.18-3.17V224.73a44.65,44.65,0,1,0,28.29-79.13Zm0,72.79a28.26,28.26,0,0,1-28.28-27.5v-1.45a28.29,28.29,0,1,1,28.28,28.95Z"/><path class="cls-1" d="M787.86,190.36c0-24.63-19.31-44.6-43.14-44.6s-43.14,20-43.14,44.6a47.55,47.55,0,0,0,.32,5.48l.07.58h0A43.4,43.4,0,0,0,712.91,220l0,0a45.93,45.93,0,0,0,25.58,14.12l.78.14v0l1.16.18c13.68,1.65,25.18-.57,34.51-5.27a42.55,42.55,0,0,0,6.51-4c.63-.48,1.18-.93,1.64-1.33.28-.24.46-.42.56-.52,2.42-2.49,2.52-3.56,1.08-5.81-3.34-5.32-5.21-7.92-5.21-7.92-1.31-1.63-2.49-2-4.15-.53-.3.26-.57.43-.71.58-10,8.85-23,10.59-34.42,8.21a38.36,38.36,0,0,1-6.55-2.39,27.6,27.6,0,0,1-15-19.06h64.18a5.3,5.3,0,0,0,5-5.36c0-.14,0-.26,0-.38A2.13,2.13,0,0,0,787.86,190.36Zm-68.11-10.29c3.31-10.79,13.31-18,25-18a27.65,27.65,0,0,1,25.43,18Z"/></g></g></svg>